<svg xmlns="http://www.w3.org/2000/svg" width="18" height="18" viewBox="0 0 18 18">
    <path id="theme_color" fill="#000" fill-rule="nonzero" d="M15.32 10.315l-.648-.803c.323-.419.593-.824.805-1.213.339-.622.514-1.18.514-1.658 0-2.338-1.403-3.641-3.04-3.641-.771 0-1.44.198-2.022.596a.507.507 0 0 1-.702-.127.497.497 0 0 1 .129-.696C11.109 2.258 11.979 2 12.952 2 15.132 2 17 3.736 17 6.641c0 .665-.223 1.377-.636 2.134-.272.5-.623 1.013-1.044 1.54zm.875 2.684a.497.497 0 0 1-.115.653.508.508 0 0 1-.71-.08l-1.4-1.747c-.364.37-.745.735-1.162 1.119-.137.126-.838.759-.924.844-.627.621-2.037 1.836-2.338 2.027-.396.253-.794.253-1.137-.041l-.2-.17c-.12-.102-.25-.213-.402-.347-.418-.366-.944-.84-1.612-1.457-.17-.157-.927-.833-.993-.893a32.711 32.711 0 0 1-1.237-1.166C2.249 10.026 1.21 8.474 1.027 6.929A3.872 3.872 0 0 1 1 6.472C1 3.644 2.922 2.07 4.995 2.07c1.257 0 2.326.388 3.204 1.134.134.113.533.573 1.186 1.36L16.195 13zm-4.626-4.161l-.07-.086c-2.255-2.795-3.762-4.625-3.956-4.79-.695-.59-1.53-.893-2.548-.893-1.554 0-2.986 1.174-2.986 3.403 0 .112.007.225.02.34.15 1.262 1.083 2.657 2.652 4.224.362.362.739.715 1.2 1.132.06.054.824.736 1.002.9.662.611 1.181 1.08 1.592 1.44a34.515 34.515 0 0 0 .535.46c.256-.171 1.589-1.32 2.161-1.887.105-.104.832-.76.95-.87.44-.405.838-.788 1.215-1.176-.633-.788-1.209-1.505-1.767-2.197z"/>
</svg>
