<svg xmlns="http://www.w3.org/2000/svg" width="18" height="18" viewBox="0 0 18 18">
    <g fill="none" fill-rule="nonzero">
        <path id="theme_color" fill="#000" d="M15.35 11.693a4.017 4.017 0 0 0-.803-.63l.295-.25a.46.46 0 0 0 .038-.655.484.484 0 0 0-.359-.158C12.688 10 11 8.255 11 6.422V2.467A.474.474 0 0 0 10.523 2H6.479A.473.473 0 0 0 6 2.467v4.042a.5.5 0 1 1-1 0V2.467C5.001 1.656 5.665 1 6.48 1h4.044C11.337 1 12 1.658 12 2.467v3.955C12 7.702 13.24 9 14.521 9c.42 0 .82.177 1.1.487a1.46 1.46 0 0 1-.116 2.076l-.155.13zm-6.118 5.114a1.488 1.488 0 0 1-1.719-.18l-6.018-5.064A1.463 1.463 0 0 1 1 10.468C1 9.656 1.663 9 2.479 9h3.647a.5.5 0 0 1 0 1H2.48a.473.473 0 0 0-.479.468c0 .131.057.257.157.346l6.019 5.065c.164.145.405.16.585.044.12.316.279.612.47.884z"/>
        <path id="theme_color2" fill="#20D4B0" d="M9 14.5a3.5 3.5 0 1 1 7 0 3.5 3.5 0 0 1-7 0zm1.401.24l1.021 1.02a1 1 0 0 0 1.414 0l1.78-1.78a.5.5 0 0 0-.706-.707l-1.78 1.78-1.022-1.021a.5.5 0 0 0-.707.707z"/>
    </g>
</svg>
