<?xml version="1.0" encoding="UTF-8"?>
<svg width="41pt" height="15pt" viewBox="0 0 41 15" version="1.1" xmlns="http://www.w3.org/2000/svg" xmlns:xlink="http://www.w3.org/1999/xlink">
    <!-- Generator: Sketch 58 (84663) - https://sketch.com -->
    <title>bv_effect_on</title>
    <desc>Created with Sketch.</desc>
    <g id="theme_color" stroke="none" stroke-width="1" fill="none" fill-rule="evenodd">
        <g id="bv_effect_on" fill-rule="nonzero">
            <path d="M39.096,0 C39.623,0 40.073,0.195 40.446,0.583 C40.813,0.97 41,1.44 41,1.994 L41,12.906 C41,13.461 40.812,13.931 40.445,14.318 C40.07,14.707 39.623,14.9 39.093,14.9 L2.006,14.9 C1.478,14.9 1.028,14.707 0.656,14.318 C0.286,13.932 0.1,13.46 0.1,12.904 L0.1,1.994 C0.1,1.441 0.286,0.971 0.657,0.584 C1.028,0.195 1.479,0 2.006,0 L39.096,0 Z M40.052,12.904 L40.052,1.994 C40.052,1.694 39.967,1.451 39.791,1.266 C39.611,1.083 39.38,0.99 39.096,0.99 L2.006,0.99 C1.717,0.99 1.486,1.082 1.311,1.266 C1.135,1.451 1.045,1.694 1.045,1.994 L1.045,12.906 C1.045,13.212 1.134,13.451 1.311,13.636 C1.486,13.82 1.717,13.908 2.006,13.908 L39.094,13.908 C39.379,13.908 39.612,13.819 39.79,13.636 C39.967,13.45 40.052,13.211 40.052,12.904 Z" id="Shape" fill="#040000"></path>
            <path d="M27.995,8.633 C27.995,7.778 28.224,7.104 28.679,6.609 C29.136,6.114 29.756,5.867 30.539,5.867 C31.282,5.867 31.864,6.106 32.286,6.581 C32.709,7.057 32.922,7.715 32.922,8.554 C32.922,9.375 32.694,10.032 32.245,10.533 C31.794,11.035 31.188,11.285 30.432,11.285 C29.693,11.285 29.101,11.045 28.658,10.558 C28.215,10.068 27.995,9.43 27.995,8.633 Z M28.891,8.604 C28.891,9.201 29.037,9.671 29.324,10.015 C29.613,10.357 30.001,10.527 30.486,10.527 C30.988,10.527 31.373,10.361 31.634,10.027 C31.894,9.689 32.027,9.209 32.027,8.582 C32.027,7.953 31.894,7.467 31.634,7.131 C31.37,6.793 30.988,6.625 30.486,6.625 C29.994,6.625 29.607,6.802 29.32,7.153 C29.034,7.506 28.891,7.992 28.891,8.604 Z" id="Shape" fill="#040000"></path>
            <path d="M38.341,11.168 L37.467,11.168 L37.467,8.222 C37.467,7.159 37.096,6.626 36.352,6.626 C35.969,6.626 35.654,6.775 35.406,7.074 C35.158,7.374 35.033,7.753 35.033,8.211 L35.033,11.168 L34.156,11.168 L34.156,5.988 L35.033,5.988 L35.033,6.845 L35.054,6.845 C35.427,6.192 35.967,5.866 36.677,5.866 C37.223,5.866 37.637,6.048 37.918,6.412 C38.199,6.776 38.343,7.304 38.343,8.001 L38.341,11.168 L38.341,11.168 Z" id="Path" fill="#040000"></path>
            <path d="M4.955,5.888 L7.84,5.888 C7.655,5.566 7.451,5.267 7.23,4.989 L7.845,4.589 C8.105,4.921 8.359,5.273 8.607,5.644 L8.221,5.888 L10.789,5.888 C11.098,5.462 11.376,5.022 11.624,4.57 L12.386,5.019 C12.184,5.267 11.94,5.556 11.654,5.888 L14.506,5.888 L14.506,6.591 L4.955,6.591 L4.955,5.888 Z M5.453,3.847 L9.564,3.847 C9.411,3.541 9.251,3.264 9.085,3.017 L9.827,2.665 C10.016,2.945 10.218,3.261 10.432,3.612 L9.959,3.847 L14.036,3.847 L14.036,4.55 L5.453,4.55 L5.453,3.847 Z M6.166,7.46 L13.266,7.46 L13.266,12.286 L12.524,12.286 L12.524,11.749 L6.908,11.749 L6.908,12.306 L6.166,12.306 L6.166,7.46 Z M12.523,8.153 L6.908,8.153 L6.908,9.247 L12.523,9.247 L12.523,8.153 Z M6.908,11.054 L12.523,11.054 L12.523,9.921 L6.908,9.921 L6.908,11.054 Z" id="Shape" fill="#000000"></path>
            <path d="M15.834,8.066 L16.361,7.607 C16.803,8.027 17.236,8.448 17.66,8.874 C17.946,8.399 18.2,7.886 18.422,7.333 L19.125,7.704 C18.852,8.319 18.543,8.89 18.201,9.412 C18.67,9.887 19.128,10.363 19.574,10.838 L18.92,11.396 C18.51,10.931 18.115,10.49 17.738,10.074 C17.048,10.971 16.237,11.72 15.306,12.314 C15.182,12.137 15.013,11.922 14.798,11.668 C15.752,11.121 16.56,10.404 17.224,9.517 C16.733,8.986 16.27,8.503 15.834,8.066 Z M16.41,5.38 L17.055,5.78 C16.521,6.542 15.967,7.28 15.395,7.997 C15.232,7.86 15.04,7.71 14.818,7.548 C15.3,6.968 15.83,6.247 16.41,5.38 Z M15.023,4.335 L19.945,4.335 L19.945,5 L15.023,5 L15.023,4.335 Z M16.791,3.018 L17.455,2.676 C17.722,3.099 17.969,3.522 18.197,3.946 L17.513,4.298 C17.279,3.828 17.038,3.401 16.791,3.018 Z M18.412,5.41 C18.828,5.84 19.307,6.37 19.848,7.002 L19.271,7.49 C18.867,6.989 18.405,6.435 17.884,5.83 L18.412,5.41 Z M21.137,2.714 L21.908,2.841 C21.773,3.466 21.605,4.055 21.404,4.609 L24.545,4.609 L24.545,5.273 L23.871,5.273 C23.697,7.177 23.287,8.667 22.641,9.736 C23.184,10.478 23.881,11.096 24.731,11.59 C24.522,11.877 24.346,12.133 24.205,12.361 C23.371,11.81 22.683,11.17 22.14,10.437 C21.539,11.185 20.798,11.853 19.91,12.439 C19.766,12.25 19.581,12.044 19.353,11.824 C20.32,11.176 21.091,10.472 21.671,9.715 C21.118,8.734 20.767,7.601 20.617,6.321 C20.461,6.591 20.293,6.85 20.115,7.097 C19.978,6.902 19.815,6.693 19.626,6.472 C20.377,5.419 20.883,4.167 21.137,2.714 Z M23.1,5.273 L21.196,5.273 C21.297,6.705 21.617,7.934 22.158,8.961 C22.699,7.95 23.014,6.721 23.1,5.273 Z" id="Shape" fill="#000000"></path>
        </g>
    </g>
</svg>