<?xml version="1.0" encoding="utf-8"?>
<!-- Generator: Adobe Illustrator 15.0.0, SVG Export Plug-In . SVG Version: 6.00 Build 0)  -->
<!DOCTYPE svg PUBLIC "-//W3C//DTD SVG 1.0//EN" "http://www.w3.org/TR/2001/REC-SVG-20010904/DTD/svg10.dtd">
<svg version="1.0" id="图层_1" xmlns="http://www.w3.org/2000/svg" xmlns:xlink="http://www.w3.org/1999/xlink" x="0px" y="0px"
	 width="41pt" height="15pt" viewBox="0 0 41 15" enable-background="new 0 0 41 15" xml:space="preserve">
<g id="theme_color">
	<path fill="#000" d="M39.096,0c0.527,0,0.978,0.195,1.35,0.583C40.813,0.97,41,1.44,41,1.994v10.912
		c0,0.555-0.188,1.025-0.555,1.412c-0.375,0.389-0.822,0.582-1.353,0.582H2.006c-0.528,0-0.978-0.193-1.35-0.582
		C0.286,13.932,0.1,13.46,0.1,12.904V1.994c0-0.553,0.186-1.023,0.557-1.41C1.028,0.195,1.479,0,2.006,0H39.096z M40.052,12.904
		V1.994c0-0.3-0.085-0.543-0.261-0.728c-0.18-0.183-0.411-0.276-0.695-0.276H2.006c-0.289,0-0.52,0.092-0.695,0.276
		C1.135,1.451,1.045,1.694,1.045,1.994v10.912c0,0.306,0.089,0.545,0.266,0.73c0.175,0.184,0.406,0.271,0.695,0.271h37.088
		c0.285,0,0.518-0.09,0.696-0.271C39.967,13.45,40.052,13.211,40.052,12.904z"/>
		<path fill="#000" d="M27.211,8.789c0-0.82,0.217-1.467,0.656-1.944c0.438-0.471,1.035-0.708,1.789-0.708
			c0.715,0,1.274,0.228,1.682,0.684c0.404,0.458,0.607,1.083,0.607,1.89c0,0.783-0.217,1.418-0.649,1.9s-1.013,0.723-1.743,0.723
			c-0.714,0-1.283-0.232-1.706-0.701C27.422,10.166,27.211,9.553,27.211,8.789z M28.072,8.764c0,0.568,0.141,1.016,0.414,1.35
			c0.274,0.328,0.649,0.494,1.116,0.494c0.483,0,0.853-0.16,1.104-0.484c0.248-0.318,0.378-0.781,0.378-1.383
			c0-0.605-0.13-1.069-0.378-1.394c-0.252-0.321-0.621-0.483-1.104-0.483c-0.473,0-0.847,0.167-1.122,0.506
			C28.205,7.708,28.072,8.168,28.072,8.764z"/>
		<path fill="#000" d="M35.404,4.619c-0.156-0.089-0.328-0.13-0.512-0.13c-0.529,0-0.795,0.341-0.795,1.022V6.25h1.116v0.729
			h-1.116v4.238h-0.835V6.979h-0.812V6.252h0.812v-0.78c0-0.533,0.151-0.952,0.442-1.254c0.294-0.301,0.669-0.453,1.121-0.453
			c0.24,0,0.433,0.025,0.576,0.085v0.769H35.404z"/>
		<path fill="#000" d="M38.459,4.619c-0.156-0.089-0.329-0.13-0.51-0.13c-0.527,0-0.793,0.341-0.793,1.022V6.25h1.112v0.729
			h-1.112v4.238H36.32V6.979h-0.812V6.252h0.812v-0.78c0-0.533,0.149-0.952,0.441-1.254c0.292-0.301,0.666-0.453,1.121-0.453
			c0.24,0,0.432,0.025,0.576,0.085V4.619z"/>

	<path fill="#000" d="M4.955,5.888H7.84C7.655,5.566,7.451,5.267,7.23,4.989l0.615-0.4c0.26,0.332,0.514,0.684,0.762,1.055
		L8.221,5.888h2.568c0.309-0.426,0.587-0.866,0.835-1.318l0.762,0.449c-0.202,0.248-0.446,0.537-0.732,0.869h2.852v0.703H4.955
		V5.888z M5.453,3.847h4.111c-0.153-0.306-0.313-0.583-0.479-0.83l0.742-0.352c0.189,0.28,0.391,0.596,0.605,0.947L9.959,3.847
		h4.077V4.55H5.453V3.847z M6.166,7.46h7.1v4.826h-0.742v-0.537H6.908v0.557H6.166V7.46z M12.523,8.153H6.908v1.094h5.615V8.153z
		 M6.908,11.054h5.615V9.921H6.908V11.054z"/>
	<path fill="#000" d="M15.834,8.066l0.527-0.459c0.442,0.42,0.875,0.841,1.299,1.267c0.286-0.475,0.54-0.988,0.762-1.541
		l0.703,0.371c-0.273,0.615-0.582,1.186-0.924,1.708c0.469,0.475,0.927,0.951,1.373,1.426l-0.654,0.558
		c-0.41-0.465-0.805-0.906-1.182-1.322c-0.69,0.897-1.501,1.646-2.432,2.24c-0.124-0.177-0.293-0.392-0.508-0.646
		c0.954-0.547,1.762-1.264,2.426-2.151C16.733,8.986,16.27,8.503,15.834,8.066z M16.41,5.38l0.645,0.4
		c-0.534,0.762-1.088,1.5-1.66,2.217C15.232,7.86,15.04,7.71,14.818,7.548C15.3,6.968,15.83,6.247,16.41,5.38z M15.023,4.335h4.922
		V5h-4.922V4.335z M16.791,3.018l0.664-0.342c0.267,0.423,0.514,0.846,0.742,1.27l-0.684,0.352
		C17.279,3.828,17.038,3.401,16.791,3.018z M18.412,5.41c0.416,0.43,0.895,0.96,1.436,1.592l-0.577,0.488
		c-0.404-0.501-0.866-1.055-1.387-1.66L18.412,5.41z M21.137,2.714l0.771,0.127c-0.135,0.625-0.303,1.214-0.504,1.768h3.141v0.664
		h-0.674c-0.174,1.904-0.584,3.394-1.23,4.463c0.543,0.742,1.24,1.36,2.09,1.854c-0.209,0.287-0.385,0.543-0.526,0.771
		c-0.834-0.551-1.522-1.191-2.065-1.924c-0.601,0.748-1.342,1.416-2.23,2.002c-0.144-0.189-0.329-0.395-0.557-0.615
		c0.967-0.648,1.738-1.352,2.318-2.109c-0.553-0.981-0.904-2.114-1.054-3.394c-0.156,0.27-0.324,0.529-0.502,0.776
		c-0.137-0.195-0.3-0.404-0.489-0.625C20.377,5.419,20.883,4.167,21.137,2.714z M23.1,5.273h-1.904
		c0.101,1.432,0.421,2.661,0.962,3.688C22.699,7.95,23.014,6.721,23.1,5.273z"/>
</g>
</svg>
