<?xml version="1.0" encoding="UTF-8"?>
<svg xmlns="http://www.w3.org/2000/svg" xmlns:xlink="http://www.w3.org/1999/xlink" width="41pt" height="15pt" viewBox="0 0 41 15" version="1.1">
<g id="theme_color">
<path style=" stroke:none;fill-rule:nonzero;fill:rgb(0%,0%,0%);fill-opacity:1;" d="M 9.585938 8 L 10.078125 8.203125 C 9.914062 8.507812 9.664062 8.972656 9.332031 9.601562 C 8.996094 10.230469 8.746094 10.699219 8.582031 11 L 8.085938 10.796875 C 8.746094 9.59375 9.246094 8.664062 9.585938 8 Z M 13.046875 8.203125 L 13.554688 8 C 14.058594 8.769531 14.554688 9.703125 15.039062 10.796875 L 14.441406 11 C 14.035156 10.0625 13.570312 9.132812 13.046875 8.203125 Z M 7.386719 6.898438 C 7.457031 6.957031 7.558594 7.054688 7.699219 7.183594 C 7.839844 7.316406 7.976562 7.449219 8.109375 7.582031 C 8.238281 7.710938 8.363281 7.851562 8.480469 8 L 8.085938 8.203125 C 7.96875 8.117188 7.855469 8.011719 7.738281 7.894531 C 7.621094 7.777344 7.5 7.648438 7.375 7.507812 C 7.246094 7.367188 7.15625 7.265625 7.097656 7.207031 L 7.097656 11.996094 L 6.109375 11.996094 L 6.109375 6.007812 L 5.804688 6.007812 L 6.109375 6.195312 C 5.738281 7.59375 5.144531 8.863281 4.320312 10.003906 C 4.320312 9.800781 4.25 9.566406 4.117188 9.300781 C 4.863281 8.363281 5.390625 7.265625 5.703125 6.007812 L 5.105469 6.007812 L 5.105469 4.996094 L 6.109375 4.996094 L 6.109375 3.003906 L 7.097656 3.003906 L 7.097656 4.996094 L 8.085938 4.996094 L 8.085938 6.007812 L 7.097656 6.007812 L 7.097656 7.207031 Z M 14.050781 3.003906 L 14.050781 4 L 9.074219 4 L 9.074219 3.003906 Z M 22.980469 4.996094 L 21.992188 4.996094 L 21 3.003906 L 21.992188 3.003906 Z M 12.058594 6.007812 L 15.039062 6.007812 L 15.039062 7 L 12.058594 7 L 12.058594 10.898438 C 12.058594 11.632812 11.761719 11.996094 11.167969 11.996094 L 10.167969 11.996094 C 10.167969 11.890625 10.046875 11.722656 9.804688 11.492188 C 9.558594 11.261719 9.316406 11.097656 9.074219 11 L 11.066406 11 L 11.066406 7 L 8.085938 7 L 8.085938 6.007812 Z M 38.863281 0 C 39.414062 0 39.886719 0.195312 40.273438 0.585938 C 40.660156 0.976562 40.855469 1.449219 40.855469 2.007812 L 40.855469 12.992188 C 40.855469 13.550781 40.660156 14.023438 40.273438 14.414062 C 39.886719 14.804688 39.414062 15 38.863281 15 L 2.136719 15 C 1.585938 15 1.113281 14.804688 0.726562 14.414062 C 0.339844 14.023438 0.144531 13.550781 0.144531 12.992188 L 0.144531 2.007812 C 0.144531 1.449219 0.339844 0.976562 0.726562 0.585938 C 1.113281 0.195312 1.585938 0 2.136719 0 Z M 39.867188 12.992188 L 39.867188 2.007812 C 39.867188 1.703125 39.773438 1.460938 39.589844 1.273438 C 39.40625 1.089844 39.164062 0.996094 38.863281 0.996094 L 2.136719 0.996094 C 1.835938 0.996094 1.59375 1.089844 1.410156 1.273438 C 1.226562 1.460938 1.132812 1.703125 1.132812 2.007812 L 1.132812 12.992188 C 1.132812 13.296875 1.226562 13.539062 1.410156 13.726562 C 1.59375 13.910156 1.835938 14.003906 2.136719 14.003906 L 38.863281 14.003906 C 39.164062 14.003906 39.40625 13.910156 39.589844 13.726562 C 39.773438 13.539062 39.867188 13.296875 39.867188 12.992188 Z M 16.027344 11.601562 C 16.5625 10.539062 17.027344 9.300781 17.425781 7.894531 C 17.617188 8.101562 17.78125 8.238281 17.917969 8.304688 C 17.460938 9.554688 16.996094 10.75 16.523438 11.894531 Z M 20 6.007812 L 20 4.996094 L 24.972656 4.996094 L 24.972656 6.007812 L 22.980469 6.007812 L 22.980469 7 L 24.972656 7 L 24.972656 8 L 22.980469 8 L 22.980469 8.992188 L 24.972656 8.992188 L 24.972656 10.003906 L 22.980469 10.003906 L 22.980469 11 L 24.972656 11 L 24.972656 11.996094 L 20 11.996094 L 20 12.992188 L 19.007812 12.992188 L 19.007812 6.195312 C 18.816406 6.597656 18.582031 6.933594 18.3125 7.207031 C 18.117188 7 18.019531 6.867188 18.019531 6.796875 C 18.457031 6.242188 18.820312 5.671875 19.109375 5.097656 L 19.109375 4.996094 C 19.304688 4.59375 19.601562 3.929688 20 3.003906 L 20.59375 3.195312 C 20.324219 3.925781 19.960938 4.691406 19.503906 5.492188 Z M 20 6.007812 L 20 7 L 21.992188 7 L 21.992188 6.007812 Z M 20 8 L 20 8.992188 L 21.992188 8.992188 L 21.992188 8 Z M 20 10.003906 L 20 11 L 21.992188 11 L 21.992188 10.003906 Z M 18.019531 5.59375 L 17.527344 5.902344 C 17.359375 5.738281 17.109375 5.472656 16.777344 5.105469 C 16.441406 4.738281 16.191406 4.472656 16.027344 4.304688 L 16.433594 4 C 17.007812 4.488281 17.535156 5.019531 18.019531 5.59375 Z M 32.417969 6.195312 L 32.609375 6.007812 L 35.894531 9.300781 L 35.195312 10.003906 L 32.417969 7.207031 L 29.640625 10.003906 L 28.941406 9.300781 L 32.214844 6.007812 Z M 32.417969 6.195312 "/>
</g>
</svg>
