<?xml version="1.0" encoding="UTF-8"?>
<svg xmlns="http://www.w3.org/2000/svg" xmlns:xlink="http://www.w3.org/1999/xlink" width="41pt" height="15pt" viewBox="0 0 41 15" version="1.1">
<g id="theme_color">
<path style=" stroke:none;fill-rule:nonzero;fill:rgb(0%,0%,0%);fill-opacity:1;" d="M 23.324219 10.269531 L 21.878906 9.023438 L 22.617188 8.289062 L 24.074219 9.550781 C 24.265625 9.296875 24.429688 8.96875 24.570312 8.570312 C 24.710938 8.167969 24.78125 7.8125 24.78125 7.5 C 24.78125 6.53125 24.414062 5.707031 23.683594 5.023438 C 22.953125 4.339844 22.070312 4 21.035156 4 C 20 4 19.113281 4.339844 18.382812 5.023438 C 17.652344 5.707031 17.285156 6.53125 17.285156 7.5 C 17.285156 8.46875 17.652344 9.292969 18.382812 9.976562 C 19.113281 10.660156 20 11 21.035156 11 C 21.390625 11 21.789062 10.929688 22.234375 10.789062 C 22.675781 10.648438 23.039062 10.472656 23.324219 10.269531 Z M 24.859375 10.238281 L 25.832031 11.089844 L 25.109375 11.820312 L 24.109375 10.957031 C 23.742188 11.25 23.257812 11.496094 22.65625 11.695312 C 22.054688 11.898438 21.515625 11.996094 21.035156 11.996094 C 19.707031 11.996094 18.570312 11.558594 17.628906 10.679688 C 16.6875 9.800781 16.21875 8.742188 16.21875 7.5 C 16.21875 6.257812 16.6875 5.199219 17.628906 4.320312 C 18.570312 3.441406 19.707031 3.003906 21.035156 3.003906 C 22.359375 3.003906 23.496094 3.441406 24.4375 4.320312 C 25.378906 5.199219 25.847656 6.257812 25.847656 7.5 C 25.847656 7.921875 25.75 8.398438 25.558594 8.9375 C 25.363281 9.472656 25.132812 9.90625 24.859375 10.238281 Z M 6.585938 7 L 13.003906 7 L 13.003906 3.003906 L 14.070312 3.003906 L 14.070312 11.996094 L 13.003906 11.996094 L 13.003906 8 L 6.585938 8 L 6.585938 11.996094 L 5.503906 11.996094 L 5.503906 3.003906 L 6.585938 3.003906 Z M 2.304688 0.996094 C 2.003906 0.996094 1.746094 1.09375 1.535156 1.289062 C 1.328125 1.484375 1.222656 1.722656 1.222656 2.007812 L 1.222656 12.992188 C 1.222656 13.277344 1.328125 13.515625 1.535156 13.710938 C 1.746094 13.90625 2.003906 14.003906 2.304688 14.003906 L 38.710938 14.003906 C 39.003906 14.003906 39.253906 13.90625 39.464844 13.710938 C 39.671875 13.515625 39.777344 13.277344 39.777344 12.992188 L 39.777344 2.007812 C 39.777344 1.722656 39.671875 1.484375 39.464844 1.289062 C 39.253906 1.09375 39.003906 0.996094 38.710938 0.996094 Z M 2.304688 0 L 38.710938 0 C 39.296875 0 39.796875 0.195312 40.214844 0.585938 C 40.632812 0.976562 40.84375 1.449219 40.84375 2.007812 L 40.84375 12.992188 C 40.84375 13.550781 40.632812 14.023438 40.214844 14.414062 C 39.796875 14.804688 39.296875 15 38.710938 15 L 2.304688 15 C 1.710938 15 1.203125 14.804688 0.785156 14.414062 C 0.367188 14.023438 0.15625 13.550781 0.15625 12.992188 L 0.15625 2.007812 C 0.15625 1.449219 0.367188 0.976562 0.785156 0.585938 C 1.203125 0.195312 1.710938 0 2.304688 0 Z M 33.109375 6.882812 L 30.460938 9.359375 C 30.355469 9.457031 30.230469 9.507812 30.082031 9.507812 C 29.9375 9.507812 29.8125 9.457031 29.707031 9.359375 C 29.601562 9.261719 29.550781 9.144531 29.550781 9 C 29.550781 8.859375 29.601562 8.742188 29.707031 8.640625 L 33.109375 5.464844 L 36.515625 8.640625 C 36.617188 8.742188 36.671875 8.859375 36.671875 9 C 36.671875 9.144531 36.617188 9.261719 36.515625 9.359375 C 36.410156 9.457031 36.285156 9.507812 36.136719 9.507812 C 35.992188 9.507812 35.867188 9.457031 35.761719 9.359375 Z M 33.109375 6.882812 "/>
</g>
</svg>
