<?xml version="1.0" encoding="UTF-8"?>
<svg xmlns="http://www.w3.org/2000/svg" xmlns:xlink="http://www.w3.org/1999/xlink" width="41pt" height="15pt" viewBox="0 0 41 15" version="1.1">
<g id="theme_color">
<path style=" stroke:none;fill-rule:nonzero;fill:rgb(0%,0%,0%);fill-opacity:1;" d="M 38.863281 15 L 2.136719 15 C 1.585938 15 1.113281 14.804688 0.726562 14.414062 C 0.339844 14.023438 0.144531 13.550781 0.144531 12.992188 L 0.144531 2.007812 C 0.144531 1.449219 0.339844 0.976562 0.726562 0.585938 C 1.113281 0.195312 1.585938 0 2.136719 0 L 38.863281 0 C 39.414062 0 39.886719 0.195312 40.273438 0.585938 C 40.660156 0.976562 40.855469 1.449219 40.855469 2.007812 L 40.855469 12.992188 C 40.855469 13.550781 40.660156 14.023438 40.273438 14.414062 C 39.886719 14.804688 39.414062 15 38.863281 15 Z M 39.867188 2.007812 C 39.867188 1.703125 39.773438 1.460938 39.589844 1.273438 C 39.40625 1.089844 39.164062 0.996094 38.863281 0.996094 L 2.136719 0.996094 C 1.835938 0.996094 1.59375 1.089844 1.410156 1.273438 C 1.226562 1.460938 1.132812 1.703125 1.132812 2.007812 L 1.132812 12.992188 C 1.132812 13.296875 1.226562 13.539062 1.410156 13.726562 C 1.59375 13.910156 1.835938 14.003906 2.136719 14.003906 L 38.863281 14.003906 C 39.164062 14.003906 39.40625 13.910156 39.589844 13.726562 C 39.773438 13.539062 39.867188 13.296875 39.867188 12.992188 Z M 32.417969 7.207031 L 29.640625 10.003906 L 28.941406 9.300781 L 32.214844 6.007812 L 32.417969 6.195312 L 32.609375 6.007812 L 35.894531 9.300781 L 35.195312 10.003906 Z M 17.816406 11.101562 L 22.980469 11.101562 C 22.457031 9.640625 22.195312 8.871094 22.195312 8.804688 L 22.195312 8.703125 L 23.183594 8.703125 C 23.910156 10.828125 24.308594 11.894531 24.375 11.894531 L 24.375 11.996094 L 16.726562 11.996094 C 16.65625 11.996094 16.65625 11.960938 16.726562 11.894531 C 17.589844 9.492188 18.183594 7.828125 18.515625 6.898438 L 16.027344 6.898438 L 16.027344 6.007812 L 24.972656 6.007812 L 24.972656 6.898438 L 19.605469 6.898438 Z M 16.828125 3.003906 L 23.78125 3.003906 L 23.78125 4 L 16.828125 4 Z M 14.835938 4.996094 C 14.777344 5.972656 14.683594 6.753906 14.558594 7.339844 C 14.433594 7.925781 14.160156 8.613281 13.746094 9.40625 C 14.09375 9.921875 14.59375 10.453125 15.242188 11 L 15.242188 11.894531 C 15.242188 11.960938 15.207031 11.960938 15.140625 11.894531 C 14.269531 11.347656 13.636719 10.78125 13.25 10.195312 C 12.660156 10.90625 12.027344 11.476562 11.359375 11.894531 L 11.273438 11.894531 L 11.273438 11 C 11.910156 10.453125 12.40625 9.921875 12.753906 9.40625 C 12.347656 8.625 12.097656 7.953125 12.007812 7.390625 C 11.914062 6.828125 11.867188 6 11.867188 4.90625 L 11.359375 4.90625 C 11.300781 4.898438 11.273438 4.863281 11.273438 4.804688 C 11.339844 4.628906 11.445312 4.28125 11.589844 3.765625 C 11.738281 3.246094 11.828125 2.960938 11.867188 2.898438 L 12.855469 2.898438 C 12.925781 2.898438 12.957031 2.933594 12.957031 3.003906 C 12.929688 3.082031 12.882812 3.199219 12.8125 3.355469 C 12.746094 3.511719 12.683594 3.648438 12.632812 3.773438 C 12.578125 3.894531 12.550781 3.96875 12.550781 4 L 15.839844 4 L 15.839844 4.90625 L 14.835938 4.90625 Z M 12.753906 4.996094 C 12.753906 5.835938 12.78125 6.449219 12.828125 6.839844 C 12.875 7.230469 13.015625 7.75 13.25 8.394531 C 13.5 7.699219 13.667969 7.152344 13.75 6.753906 C 13.832031 6.351562 13.898438 5.800781 13.949219 5.097656 L 13.949219 4.996094 Z M 7.882812 7 L 10.863281 7 L 10.863281 8 L 7.882812 8 Z M 7.882812 3.898438 L 8.886719 3.898438 L 8.886719 4.996094 L 9.277344 4.996094 L 9.277344 3.003906 L 10.167969 3.003906 L 10.167969 4 L 10.863281 4 L 10.863281 6.007812 L 7.882812 6.007812 Z M 10.863281 8.992188 L 10.863281 10.003906 C 11.328125 9.671875 11.597656 9.507812 11.664062 9.507812 L 11.765625 9.507812 L 11.765625 10.296875 L 10.078125 11.398438 L 9.277344 10.898438 L 9.875 10.605469 L 9.875 10.003906 L 8.785156 10.003906 L 8.785156 10.398438 C 8.785156 10.617188 8.78125 10.761719 8.769531 10.839844 C 8.761719 10.917969 8.746094 10.980469 8.726562 11.03125 C 8.707031 11.078125 8.652344 11.195312 8.566406 11.375 C 8.480469 11.554688 8.386719 11.761719 8.289062 11.996094 L 7.386719 11.996094 C 7.332031 11.996094 7.300781 11.960938 7.300781 11.894531 C 7.386719 11.671875 7.484375 11.449219 7.585938 11.226562 C 7.6875 11.007812 7.753906 10.863281 7.78125 10.796875 C 7.808594 10.726562 7.835938 10.636719 7.855469 10.523438 C 7.875 10.414062 7.882812 10.269531 7.882812 10.09375 L 7.882812 8.992188 Z M 5.207031 6.09375 C 5.90625 4.902344 6.402344 3.90625 6.703125 3.105469 L 7.59375 3.105469 C 7.660156 3.105469 7.660156 3.132812 7.59375 3.195312 C 7.242188 4.023438 6.75 4.992188 6.109375 6.09375 Z M 7.097656 6.007812 C 6.960938 6.40625 6.832031 6.738281 6.703125 7 L 6.703125 11.996094 L 6.109375 11.996094 L 6.109375 8.597656 C 6.070312 8.636719 6.019531 8.707031 5.957031 8.804688 C 5.894531 8.902344 5.84375 8.964844 5.804688 8.992188 L 5.105469 8.992188 C 5.289062 8.640625 5.460938 8.277344 5.621094 7.902344 C 5.78125 7.527344 5.9375 7.144531 6.09375 6.761719 C 6.25 6.375 6.351562 6.125 6.398438 6.007812 Z M 7.097656 6.007812 "/>
</g>
</svg>
