<svg xmlns="http://www.w3.org/2000/svg" width="200" height="300">
	<!-- 按钮 -->
	<!-- 未关注 -->
	<svg width="11" height="11" x="0" y="0">
		<path d="M0 5h11v1h-11zM5 0h1v11h-1z"/>
	</svg>
	<!-- 已关注 -->
	<svg width="12" height="9" x="0" y="20">
		<path d="M.708 3.364l4.242 4.242-.707.707-4.242-4.242zM11.313 1.243l-7.07 7.07-.707-.707 7.07-7.07z"/>
	</svg>
	<!-- 播放 -->
	<svg width="11" height="14" x="0" y="40">
		<path d="m1.137,12.87565l8.625,-5.627c0.32,-0.209 0.32,-0.289 0,-0.497l-8.625,-5.625c-0.265,-0.173 -0.138,-0.242 -0.138,0.07l0,11.61c0,0.306 -0.123,0.24 0.138,0.069zm0.542,0.847c-0.927,0.604 -1.679,0.187 -1.679,-0.917l0,-11.61c0,-1.11 0.75,-1.522 1.679,-0.916l8.625,5.625c0.927,0.605 0.93,1.584 0,2.19l-8.625,5.628z"/>
	</svg>
	<!-- 下载 -->
	<svg width="11" height="13" x="0" y="60">
		<path d="M10,10.492c0,1.133-.293,1.5-1.322,1.5-0.576,0-6.206-.019-6.377,0A1.327,1.327,0,0,1,1,10.492v-1.5L0,9v1.855c0,1.693.985,2.139,2.778,2.139H8.684c1.582,0,2.31-.383,2.31-2.076L11,9l-1,0v1.5ZM5-.016H6v10L5,10V-0.016ZM10.5,3.991L11,5.068,6,9.991,5,9.452Zm-10,0L0,5.068,5,9.991l1-.539Z" style="fill-rule:evenodd;"/>
	</svg>
	<!-- 批量操作 -->
	<svg width="17" height="13" x="0" y="80">
		<path d="m6.5,1l10,0c0.27614,0 0.5,0.22386 0.5,0.5c0,0.27614 -0.22386,0.5 -0.5,0.5l-10,0c-0.27614,0 -0.5,-0.22386 -0.5,-0.5c0,-0.27614 0.22386,-0.5 0.5,-0.5zm0,5l10,0c0.27614,0 0.5,0.22386 0.5,0.5c0,0.27614 -0.22386,0.5 -0.5,0.5l-10,0c-0.27614,0 -0.5,-0.22386 -0.5,-0.5c0,-0.27614 0.22386,-0.5 0.5,-0.5zm0,5l10,0c0.27614,0 0.5,0.22386 0.5,0.5c0,0.27614 -0.22386,0.5 -0.5,0.5l-10,0c-0.27614,0 -0.5,-0.22386 -0.5,-0.5c0,-0.27614 0.22386,-0.5 0.5,-0.5zm-4.586,-9.086l1.768,-1.768c0.12647,-0.12629 0.31071,-0.17552 0.48332,-0.12914c0.17261,0.04638 0.30737,0.18133 0.3535,0.354c0.04614,0.17267 -0.00335,0.35685 -0.12982,0.48314l-2.121,2.12c-0.19525,0.19519 -0.51175,0.19519 -0.707,0l-1.415,-1.412c-0.12629,-0.12647 -0.17552,-0.31071 -0.12914,-0.48332c0.04638,-0.17261 0.18133,-0.30737 0.354,-0.3535c0.17267,-0.04614 0.35685,0.00335 0.48314,0.12982l1.06,1.06l0,-0.001zm0,5l1.768,-1.768c0.12647,-0.12629 0.31071,-0.17552 0.48332,-0.12914c0.17261,0.04638 0.30737,0.18133 0.3535,0.354c0.04614,0.17267 -0.00335,0.35685 -0.12982,0.48314l-2.121,2.12c-0.19525,0.19519 -0.51175,0.19519 -0.707,0l-1.415,-1.412c-0.19523,-0.19551 -0.19501,-0.51227 0.0005,-0.7075c0.19551,-0.19523 0.51227,-0.19501 0.7075,0.0005l1.06,1.06l0,-0.001zm0,5l1.768,-1.768c0.12647,-0.12629 0.31071,-0.17552 0.48332,-0.12914c0.17261,0.04638 0.30737,0.18133 0.3535,0.354c0.04614,0.17267 -0.00335,0.35685 -0.12982,0.48314l-2.121,2.12c-0.19525,0.19519 -0.51175,0.19519 -0.707,0l-1.415,-1.413c-0.19523,-0.19551 -0.19501,-0.51227 0.0005,-0.7075c0.19551,-0.19523 0.51227,-0.19501 0.7075,0.0005l1.06,1.06z"/>
	</svg>
	<!-- 电台 -->
	<svg width="13" height="12" x="0" y="100">
		<path d="M9.9 10.5c1.3-1.1 2.1-2.7 2.1-4.5 0-3.3-2.7-6-6-6s-6 2.7-6 6c0 1.8.8 3.4 2.1 4.5l.6-.8c-1.1-.9-1.7-2.2-1.7-3.7 0-2.8 2.2-5 5-5s5 2.2 5 5c0 1.5-.6 2.8-1.6 3.7l.5.8zM8.1 8.1c.6-.5.9-1.3.9-2.1 0-1.7-1.3-3-3-3s-3 1.3-3 3c0 .8.3 1.6.9 2.1l.6-.8c-.3-.3-.5-.8-.5-1.3 0-1.1.9-2 2-2s2 .9 2 2c0 .5-.2 1-.5 1.3l.6.8zM8.5 12h1l-3.5-5.1-3.5 5.1h1.1l2.4-3.6z"/>
	</svg>

	<!-- 分享 -->
	<svg width="12" height="12" x="0" y="140">
		<path d="M10,12H2a2,2,0,0,1-2-2V2A2,2,0,0,1,2,0H5V1H2A1,1,0,0,0,1,2v8a1,1,0,0,0,1,1h8a1,1,0,0,0,1-1V7h1v3A2,2,0,0,1,10,12ZM11,1.732L4.744,7.988,4.012,7.256,10.268,1H8V0h4V4H11V1.732Z"/>
	</svg>

	<!-- 收听 -->
	<svg width="14" height="14" x="0" y="160"><path d="M11 8.035v-1.035a4 4 0 1 0-8 0v1.035a1.307 1.307 0 0 1 1.6 1.275v1.38c0 .724-.577 1.31-1.3 1.31-.718 0-1.3-.59-1.3-1.31v-3.69a5 5 0 1 1 10 0v3.69c0 .724-.577 1.31-1.3 1.31-.718 0-1.3-.59-1.3-1.31v-1.38a1.302 1.302 0 0 1 1.6-1.275z"/></svg>

	<!-- 箭头 -->
	<svg width="10" height="6" x="0" y="180">
		<path d="M9.678,1.223L5.407,5.667a0.613,0.613,0,0,1-.054.084,0.638,0.638,0,0,1-.188.127C5.151,5.886,5.138,5.9,5.125,5.9L5.1,5.913a0.445,0.445,0,0,1-.493-0.041,0.915,0.915,0,0,1-.252-0.184l-4.1-4.464A0.722,0.722,0,0,1,.19.188a0.644,0.644,0,0,1,.966.158l3.77,4.1L8.9,0.314A0.639,0.639,0,0,1,9.867.188,0.746,0.746,0,0,1,9.678,1.223Z"/>
	</svg>

	<!-- 箭头 -->
	<svg width="8" height="12" x="0" y="200">
		<path d="M1.26 9.633a.782.782 0 0 0-.055 1.11.794.794 0 0 0 1.117.053l4.246-3.826.09-.09a1.303 1.303 0 0 0-.09-1.848l-4.246-3.828a.794.794 0 0 0-1.117.054.782.782 0 0 0 .054 1.109l4.031 3.633-4.03 3.633z"/>
	</svg>

	<svg width="12" height="15" x="24" y="0">
		<title>歌曲列表 播放</title>
		<path d="M10.56 7.42l-9.57-6.055v12.11l9.57-6.055zm-9.7 7.369c-.475.3-.86.07-.86-.52v-13.699c0-.586.388-.817.86-.518l10.785 6.825c.475.3.472.79 0 1.088l-10.785 6.824z"/>
	</svg>
	<!-- 歌曲列表 暂停 -->
	<svg width="9" height="15" x="25" y="20">
		<title>歌曲列表 暂停</title>
		<path d="M0 0h1v15h-1v-15zm8 0h1v15h-1v-15z"/>
	</svg>

	<svg width="15" height="15" x="24" y="40">
		<title>歌曲列表 添加</title>
		<path d="M2 1a1 1 0 0 0-1 1v11a1 1 0 0 0 1 1h11a1 1 0 0 0 1-1v-11a1 1 0 0 0-1-1h-11zm0-1h11a2 2 0 0 1 2 2v11a2 2 0 0 1-2 2h-11a2 2 0 0 1-2-2v-11a2 2 0 0 1 2-2zm5 7v-4h1v4h4v1h-4v4h-1v-4h-4v-1h4z"/>
	</svg>

	<svg width="16" height="16" x="24" y="60">
		<title>歌曲列表 更多</title>
		<path d="M8 15a7 7 0 1 0 0-14 7 7 0 0 0 0 14zm0 1a8 8 0 1 1 0-16 8 8 0 0 1 0 16zm-3-9a1 1 0 1 1 0 2 1 1 0 0 1 0-2zm3 0a1 1 0 1 1 0 2 1 1 0 0 1 0-2zm3 0a1 1 0 1 1 0 2 1 1 0 0 1 0-2z"/>
	</svg>

	<svg width="15" height="16" x="24" y="80">
		<title>歌曲列表 下载</title>
		<path d="m5.001,5.509a0.5,0.5 0 1 1 -1,0l0,-4.042c0,-0.811 0.664,-1.467 1.479,-1.467l4.044,0c0.813,0 1.476,0.658 1.476,1.467l0,3.955c0,1.28 1.24,2.578 2.521,2.578c0.42,0 0.82,0.177 1.1,0.487a1.46,1.46 0 0 1 -0.116,2.076l-6.025,5.065a1.488,1.488 0 0 1 -1.968,0l-6.017,-5.065a1.463,1.463 0 0 1 -0.495,-1.095c0,-0.812 0.663,-1.468 1.479,-1.468l3.647,0a0.5,0.5 0 1 1 0,1l-3.646,0a0.473,0.473 0 0 0 -0.48,0.468c0,0.131 0.057,0.257 0.157,0.346l6.019,5.065c0.182,0.161 0.46,0.161 0.643,0l6.023,-5.065a0.46,0.46 0 0 0 0.038,-0.656a0.484,0.484 0 0 0 -0.359,-0.158c-1.833,0 -3.521,-1.745 -3.521,-3.578l0,-3.955a0.474,0.474 0 0 0 -0.477,-0.467l-4.044,0a0.473,0.473 0 0 0 -0.479,0.467l0,4.042l0.001,0z"/>
	</svg>

	<!-- 角标 -->
	<svg width="42" height="18" x="20" y="100">
		<path d="M0,0H42s-2.191,6.582-3.431,9.663C36.3,15.3,34.128,18,25.379,18H0V0Z"/>
	</svg>

	<!-- 回到顶部 -->
	<svg width="30" height="30" x="20" y="120">
		<path d="M-0,30 L-0,-0 L30,-0 L30,30 L-0,30 ZM29,1 L1,1 L1,29 L29,29 L29,1 ZM20.990,17.291 L20.324,17.989 L15,12.406 L9.676,17.989 L9.010,17.291 L15,11.011 L20.990,17.291 Z"/>
	</svg>

	<!-- 定位当前歌曲 -->
	<svg width="30" height="30" x="20" y="150">
		<path d="M-0,30 L-0,-0 L30,-0 L30,30 L-0,30 ZM29,1 L1,1 L1,29 L29,29 L29,1 ZM14,6.061 L14,7.093 C10.387,7.548 7.521,10.385 7.069,14 L6.059,14 C6.520,9.830 9.830,6.523 14,6.061 ZM14,22.907 L14,23.939 C9.830,23.477 6.520,20.170 6.059,16 L7.069,16 C7.521,19.615 10.387,22.452 14,22.907 ZM11,15 C11,12.791 12.791,11 15,11 C17.209,11 19,12.791 19,15 C19,17.209 17.209,19 15,19 C12.791,19 11,17.209 11,15 ZM15,18 C16.657,18 18,16.657 18,15 C18,13.343 16.657,12 15,12 C13.343,12 12,13.343 12,15 C12,16.657 13.343,18 15,18 ZM22.931,16 L23.941,16 C23.480,20.170 20.170,23.477 16,23.939 L16,22.907 C19.613,22.452 22.479,19.615 22.931,16 ZM16,7.093 L16,6.061 C20.170,6.523 23.480,9.830 23.941,14 L22.931,14 C22.479,10.385 19.613,7.548 16,7.093 Z"/>
	</svg>

	<!-- 评论：赞 -->
	<svg width="17" height="17" x="20" y="180">
		<path d="M15.991,14.438a3.512,3.512,0,0,1-2.5,2.5H6V17H5V16.941H2.007a1.863,1.863,0,0,1-2-2V6.928c0-1.788,2-1.793,2-1.793h3c1.356-.93,1-3.935,1-3.935,0.285-1.86,3-.984,3-0.984,3.067,1.573,2,5.9,2,5.9h4a1.864,1.864,0,0,1,1.97,1.811ZM1.01,6.928l0,8.07a1.186,1.186,0,0,0,.243.725,1.021,1.021,0,0,0,.756.234H5V6.119H2.014A0.881,0.881,0,0,0,1.01,6.928ZM15.019,7.1H9.744l0.3-1.215c0.009-.036.836-3.514-1.413-4.757A3.9,3.9,0,0,0,7.685.993c-0.5,0-.62.119-0.662,0.25C7.1,2.014,7.186,4.3,6,5.561v10.4h7.353A2.408,2.408,0,0,0,15,14.291l0.981-6.4A0.84,0.84,0,0,0,15.019,7.1Z"/>
	</svg>

	<!-- 评论：删除 -->
	<svg width="14" height="16" x="50" y="0">
		<path d="M10,3V2.145A1.131,1.131,0,0,0,8.892,1H5.106A1.131,1.131,0,0,0,3.995,2.145V3H3V2A2,2,0,0,1,5,0H9a2,2,0,0,1,2,2V3H10ZM0,3H14V4H0V3ZM2,6v6.772A2.164,2.164,0,0,0,4.093,15H9.9A2.163,2.163,0,0,0,12,12.772V6h1v7a3,3,0,0,1-3,3H4a3,3,0,0,1-3-3V6H2ZM5,6H6v7H5V6ZM8,6H9v7H8V6Z"/>
	</svg>

	<!-- 评论：回复 -->
	<svg width="16" height="16" x="50" y="16">
		<path d="M13.61,14H10v1H9V14h1V13h1v0.009h2.363c1.486,0,1.636-.681,1.636-1.645V2.653a1.375,1.375,0,0,0-1.636-1.645H2.635A1.451,1.451,0,0,0,1,2.653v8.71a1.416,1.416,0,0,0,1.636,1.645H5V13H6v1H7v1H6V14H2.39A2.385,2.385,0,0,1,0,11.621V2.392A2.385,2.385,0,0,1,2.39.008H13.61A2.385,2.385,0,0,1,16,2.392v9.23A2.386,2.386,0,0,1,13.61,14ZM7.66,5.992h0.7a0.809,0.809,0,0,1,.652.657V7.355a0.81,0.81,0,0,1-.652.658H7.66a0.81,0.81,0,0,1-.652-0.658V6.649A0.809,0.809,0,0,1,7.66,5.992Zm4,0h0.7a0.809,0.809,0,0,1,.652.657V7.355a0.81,0.81,0,0,1-.652.658h-0.7a0.81,0.81,0,0,1-.652-0.658V6.649A0.809,0.809,0,0,1,11.66,5.992ZM4.36,8.013H3.66a0.81,0.81,0,0,1-.652-0.658V6.649A0.809,0.809,0,0,1,3.66,5.992h0.7a0.809,0.809,0,0,1,.652.657V7.355A0.81,0.81,0,0,1,4.36,8.013ZM9,16H7V15H9v1Z"/>
	</svg>

	<!-- 评论：表情符号 -->
	<svg width="20" height="20" x="50" y="32">
		<path d="M10,20A10,10,0,1,1,20,10,10,10,0,0,1,10,20ZM10,1a9,9,0,1,0,9,9A9,9,0,0,0,10,1ZM5,10v0.714H5.045A4.877,4.877,0,0,0,10,15a4.877,4.877,0,0,0,4.954-4.286H15V10h1v1H15.944A5.8,5.8,0,0,1,10,16a5.8,5.8,0,0,1-5.945-5H4V10H5ZM6.5,5A1.5,1.5,0,1,1,5,6.5,1.5,1.5,0,0,1,6.5,5Zm7,0A1.5,1.5,0,1,1,12,6.5,1.5,1.5,0,0,1,13.5,5Z"/>
	</svg>

	<!-- 评论：等级星星 -->
	<svg width="110" height="18" x="50" y="52">
		<path d="M10,0l2,7h8l-6.2,4.12L16.18,18,10,13.733,3.817,18,6.2,11.119,0,7H8ZM32,0l2,7h8l-6.2,4.12L38.18,18,32,13.733,25.818,18,28.2,11.119,22,7h8ZM54,0l2,7h8l-6.2,4.12L60.18,18,54,13.733,47.818,18,50.2,11.119,44,7h8ZM76,0l2,7h8l-6.2,4.12L82.18,18,76,13.733,69.818,18,72.2,11.119,66,7h8ZM98,0l2,7h8l-6.2,4.12L104.18,18,98,13.733,91.818,18,94.2,11.119,88,7h8Z"/>
	</svg>

	<!-- MV播放 -->
	<svg width="14" height="14" x="50" y="70">
		<path d="M11 5.672l1.606-1.131a.25.25 0 0 1 .394.204v3.46a.3.3 0 0 1-.473.246l-1.527-1.075v1.624a2 2 0 0 1-2 2h-5a2 2 0 0 1-2-2v-5a2 2 0 0 1 2-2h5a2 2 0 0 1 2 2v1.672zm-7-2.672a1 1 0 0 0-1 1v5a1 1 0 0 0 1 1h5a1 1 0 0 0 1-1v-5a1 1 0 0 0-1-1h-5z"/>
	</svg>

	<!-- MV播放 -->
	<svg width="11" height="12" x="50" y="85">
		<path d="M10.8,10.1c0.2,0.2,0.2,0.5,0,0.7c-0.2,0.2-0.5,0.2-0.7,0L8.2,9  c0,0,0-0.1-0.1-0.1c-2,1.6-4.9,1.6-6.7-0.3c-2-2-2-5.1,0-7.1c2-2,5.1-2,7.1,0c1.8,1.8,1.9,4.8,0.3,6.7c0,0,0.1,0,0.1,0.1L10.8,10.1z   M7.8,2.3c-1.6-1.6-4.1-1.6-5.7,0c-1.6,1.6-1.6,4.1,0,5.7c1.6,1.6,4.1,1.6,5.7,0C9.4,6.3,9.4,3.8,7.8,2.3z"/>
	</svg>

	<!-- 微云图标1 -->
	<svg width="15" height="11" x="70" y="80">
		<path d="M11.76 5.4l-.975-.024v-.976c.001-1.884-1.475-3.4-3.285-3.4-1.809 0-3.286 1.516-3.286 3.4v.976l-.974.024a2.3 2.3 0 0 0 .06 4.6h8.4a2.3 2.3 0 0 0 .06-4.6zm3.24 2.3a3.3 3.3 0 0 1-3.3 3.3h-8.4a3.3 3.3 0 0 1-.086-6.599c0-2.431 1.92-4.401 4.286-4.401 2.367 0 4.286 1.97 4.286 4.4a3.302 3.302 0 0 1 3.214 3.3z"/>
	</svg>

	<!-- 微云图标2 -->
	<svg width="9" height="9" x="70" y="110">
		<path d="M4.5,9A4.5,4.5,0,1,1,9,4.5,4.5,4.5,0,0,1,4.5,9ZM6.324,3.005L3.866,5.558,2.695,4.31l-0.684.735L3.867,7,6.985,3.716Z"/>
	</svg>

	<svg width="14" height="12" x="50" y="180">
		<title>发表评论</title>
		<path d="M-0,11.998 L-0,10.972 L14,10.972 L14,11.998 L-0,11.998 ZM3.002,8.916 L1.765,8.912 L1.766,7.787 L9.586,0.144 C9.793,-0.058 10.126,-0.059 10.331,0.142 L10.783,0.584 C10.988,0.784 10.988,1.110 10.783,1.310 L3.002,8.916 Z"/>
	</svg>

	<svg width="14" height="13" x="54" y="120">
		<title>不喜欢</title>
		<path d="M11.268.689l-.198.849c-1.436-.335-3.086.342-3.728 1.591l-.394.767-.384-.773c-1.577-3.174-6.304-1.663-5.624 2.254.193 1.11.587 1.638 2.236 3.107l-.58.651c-1.784-1.59-2.28-2.253-2.515-3.609-.806-4.641 4.585-6.635 6.89-3.415.984-1.208 2.732-1.789 4.296-1.424zm-3.61 10.498c.756-.622 1.512-1.277 2.217-1.934.47-.439.902-.864 1.285-1.269 1.06-1.12 1.705-2.045 1.815-2.638.195-1.049.103-1.902-.229-2.545l.775-.4c.427.827.54 1.875.312 3.104-.151.812-.867 1.839-2.039 3.078-.397.42-.841.857-1.324 1.308-.719.671-1.488 1.337-2.258 1.97l-.744.6-.285.223-.267.205-.266-.206-.263-.203-.582-.448-.585-.444c-.019-.014-.218-.157-.155-.138l.258-.833c.112.035.175.082.996.711l.595.458.741-.598zm5.726-11.187l.617.617-11.595 11.595-.617-.617 11.595-11.595z"/>
	</svg>

	<svg width="16" height="16" x="54" y="140">
		<title>刷新</title>
		<path d="M2.756 6.635h1.846l-2.887 4.637c-.645-1.411-.745-3.27-.707-3.772.02-.248.024-.622.07-.865h.158c.48-3.345 3.35-5.918 6.82-5.918 1.736 0 3.372.647 4.631 1.793a.75.75 0 0 1-1.01 1.11 5.356 5.356 0 0 0-3.62-1.403c-2.64 0-4.836 1.903-5.301 4.418zm10.593 2.23h-1.951l2.887-4.637c.645 1.411.745 3.27.707 3.772-.02.248-.024.622-.07.865h-.051c-.512 3.389-3.428 5.987-6.95 5.987-1.77 0-3.439-.66-4.723-1.83a.75.75 0 0 1 1.01-1.108 5.492 5.492 0 0 0 3.713 1.438c2.69 0 4.933-1.93 5.428-4.487z"/>
	</svg>

	<svg width="16" height="40" x="80" y="0">
		<path d="M1.108 38.257a.6.6 0 1 0 .984.686l12.35-17.714a1.1 1.1 0 0 0 0-1.258l-12.35-17.714a.6.6 0 1 0-.984.686l12.31 17.657-12.31 17.657z"/>
	</svg>

	<svg width="33" height="14" x="80" y="200">
		<title>下拉箭头</title>
		<path d="M1 12c4.147-.181 6.877-1.105 8.19-2.77l5.8-7.358a2 2 0 0 1 3.067-.089l6.603 7.447c1.82 1.846 4.398 2.77 7.735 2.77h-31.395z"/>
	</svg>

	<svg width="16" height="14" x="100" y="0">
		<title>已收藏</title>
		<path d="M7.113 1.247l.472.475c.107.112.21.218.409.42l.004-.004 1.147 1.156a.638.638 0 0 0 .906 0 .647.647 0 0 0 0-.912L8.876 1.2c2.647-2.655 7.902-.776 7.027 4.4-.457 2.705-7.136 8.025-7.136 8.025-.427.351-1.12.355-1.552-.003 0 0-6.583-5.219-7.096-8.057C-.16 4.006.082 2.91.555 2.028 1.843-.374 5.22-.458 7.113 1.247z"/>
	</svg>

	<svg width="16" height="14" x="100" y="20">
		<title>收藏</title>
		<path d="m10.171,11.08c0.105,-0.103 0.832,-0.76 0.95,-0.869c0.544,-0.5 1.022,-0.965 1.477,-1.449c0.82,-0.872 1.462,-1.698 1.879,-2.463c0.339,-0.622 0.514,-1.18 0.514,-1.658c0,-2.338 -1.403,-3.641 -3.04,-3.641c-0.771,0 -1.44,0.198 -2.022,0.596a0.507,0.507 0 0 1 -0.702,-0.127a0.497,0.497 0 0 1 0.129,-0.696c0.753,-0.515 1.623,-0.773 2.596,-0.773c2.18,0 4.048,1.736 4.048,4.641c0,0.665 -0.223,1.377 -0.636,2.134c-0.463,0.85 -1.154,1.74 -2.029,2.67c-0.473,0.503 -0.968,0.984 -1.527,1.499c-0.137,0.126 -0.838,0.759 -0.924,0.844c-0.627,0.621 -2.037,1.836 -2.338,2.027c-0.396,0.253 -0.794,0.253 -1.137,-0.041l-0.2,-0.17c-0.12,-0.102 -0.25,-0.213 -0.402,-0.347c-0.418,-0.366 -0.944,-0.84 -1.612,-1.457c-0.17,-0.157 -0.927,-0.833 -0.993,-0.893a32.711,32.711 0 0 1 -1.237,-1.166c-1.716,-1.715 -2.755,-3.267 -2.938,-4.812a3.872,3.872 0 0 1 -0.027,-0.457c0,-2.828 1.922,-4.402 3.995,-4.402c1.257,0 2.326,0.388 3.204,1.134c0.529,0.449 1.375,1.341 2.553,2.688a0.497,0.497 0 0 1 -0.05,0.706a0.508,0.508 0 0 1 -0.712,-0.05c-1.147,-1.313 -1.968,-2.179 -2.447,-2.586c-0.695,-0.59 -1.53,-0.893 -2.548,-0.893c-1.554,0 -2.986,1.174 -2.986,3.403c0,0.112 0.007,0.225 0.02,0.34c0.15,1.262 1.083,2.657 2.652,4.224c0.362,0.362 0.739,0.715 1.2,1.132c0.06,0.054 0.824,0.736 1.002,0.9c0.662,0.611 1.181,1.08 1.592,1.44a34.515,34.515 0 0 0 0.535,0.46c0.256,-0.171 1.589,-1.32 2.161,-1.887l0,-0.001z"/>
	</svg>

	<svg width="18" height="11" x="100" y="80">
		<title>HQ</title>
		<path d="M2 1a1 1 0 0 0-1 1v7a1 1 0 0 0 1 1h14a1 1 0 0 0 1-1v-7a1 1 0 0 0-1-1h-14zm0-1h14a2 2 0 0 1 2 2v7a2 2 0 0 1-2 2h-14a2 2 0 0 1-2-2v-7a2 2 0 0 1 2-2zm2 5h3v-2h1v5h-1v-2h-3v2h-1v-5h1v2zm8.51 2.229l-.864-.853.703-.711.971.958a1.85 1.85 0 1 0-.81.605zm1.525.1l.472.467-.703.711-.539-.533a2.85 2.85 0 1 1 .77-.645z"/>
	</svg>

	<svg width="18" height="11" x="100" y="100">
		<title>SQ</title>
		<path d="M2 1a1 1 0 0 0-1 1v7a1 1 0 0 0 1 1h14a1 1 0 0 0 1-1v-7a1 1 0 0 0-1-1h-14zm0-1h14a2 2 0 0 1 2 2v7a2 2 0 0 1-2 2h-14a2 2 0 0 1-2-2v-7a2 2 0 0 1 2-2zm10.51 7.229l-.864-.853.703-.711.971.958a1.85 1.85 0 1 0-.81.605zm1.525.1l.472.467-.703.711-.539-.533a2.85 2.85 0 1 1 .77-.645zm-8.535-1.329c-1.38 0-2.5-.784-2.5-1.75s1.12-1.75 2.5-1.75 2.5.784 2.5 1.75h-1c0-.322-.611-.75-1.5-.75s-1.5.428-1.5.75.611.75 1.5.75c1.38 0 2.5.784 2.5 1.75s-1.12 1.75-2.5 1.75-2.5-.784-2.5-1.75h1c0 .322.611.75 1.5.75s1.5-.428 1.5-.75-.611-.75-1.5-.75zm0-1v1-1zm0 0v1-1z"/>
	</svg>

	<svg width="18" height="11" x="100" y="120">
		<title>5.1</title>
		<path d="M16 0a2 2 0 0 1 2 2v7a2 2 0 0 1-2 2H2a2 2 0 0 1-2-2V2a2 2 0 0 1 2-2h14zm0 1H2a1 1 0 0 0-1 1v7a1 1 0 0 0 1 1h14a1 1 0 0 0 1-1V2a1 1 0 0 0-1-1zM8.643 2.5v1H5.867l-.26 1.142c.165-.048.338-.08.516-.093l.198-.008c1.283 0 2.322.935 2.322 2.09 0 1.103-.951 2.007-2.156 2.083l-.166.006C5.04 8.72 4 7.784 4 6.63h1c0 .577.57 1.09 1.321 1.09.752 0 1.322-.513 1.322-1.09 0-.54-.5-1.025-1.183-1.083l-.139-.006c-.344 0-.663.11-.904.298l-.098.085-.001.003-.945-.786L5.09 2.5h3.553zM11 7.641v1h-1v-1h1zM14 2.5v6h-1v-5h-1v-1h2z"/>
	</svg>

	<svg width="17" height="11" x="100" y="140">
		<title>video</title>
		<path d="M10.804 5.874L7.601 7.94c-.19.123-.434.054-.546-.153A.466.466 0 0 1 7 7.565v-4.13c0-.24.178-.435.399-.435.071 0 .141.02.202.06l3.203 2.066c.19.122.252.388.14.595a.419.419 0 0 1-.14.153zM2 1a1 1 0 0 0-1 1v7a1 1 0 0 0 1 1h13a1 1 0 0 0 1-1V2a1 1 0 0 0-1-1H2zm0-1h13a2 2 0 0 1 2 2v7a2 2 0 0 1-2 2H2a2 2 0 0 1-2-2V2a2 2 0 0 1 2-2z"/>
	</svg>

	<svg width="20" height="22" x="100" y="160">
		<title>排行榜</title>
		<path d="M2 0h16a2 2 0 0 1 2 2v19a1 1 0 0 1-1.373.927l-8.627-3.464-8.627 3.464a1 1 0 0 1-1.373-.927v-19a2 2 0 0 1 2-2z"/>
	</svg>

	<svg width="14" height="14" x="120" y="0">
		<title>纠错</title>
		<path d="M13 5.246h1v8.754h-14v-14h8.768v1h-7.768v12h12v-7.754zm.207-5.16l.71.703-9.967 10.063-.71-.704 9.967-10.062z"/>
	</svg>

	<svg width="14" height="14" x="120" y="20">
		<title>更多</title>
		<path d="M1 2a1 1 0 1 1 0-2 1 1 0 0 1 0 2zm4 0a1 1 0 1 1 0-2 1 1 0 0 1 0 2zm4 0a1 1 0 1 1 0-2 1 1 0 0 1 0 2z"/>
	</svg>

	<svg width="18" height="18" x="140" y="0">
		<title>排名背景</title>
		<path d="M2 0h14a1 1 0 0 1 1 1v16.64a.5.5 0 0 1-.621.485l-7.379-1.84-7.379 1.84a.5.5 0 0 1-.621-.485v-16.64a1 1 0 0 1 1-1z"/>
	</svg>

	<svg width="18" height="18" x="140" y="0">
		<title>排名背景</title>
		<path d="M2 0h14a1 1 0 0 1 1 1v16.64a.5.5 0 0 1-.621.485l-7.379-1.84-7.379 1.84a.5.5 0 0 1-.621-.485v-16.64a1 1 0 0 1 1-1z"/>
	</svg>

	<svg width="18" height="18" x="139" y="80">
		<title>1</title>
		<path d="M11 4v9h-1.912v-6.93c-.235.197-.557.374-.964.531a4.553 4.553 0 0 1-1.124.293v-1.575c1.075-.303 2.004-.743 2.788-1.319h1.212z"/>
	</svg>

	<svg width="18" height="18" x="139" y="100">
		<title>2</title>
		<path d="M8.173 11.463h3.827v1.537h-6v-.657c0-.461.086-.882.26-1.263.172-.38.41-.736.713-1.066.303-.33.773-.715 1.41-1.157.582-.427.99-.805 1.223-1.134.233-.33.35-.68.35-1.049 0-.796-.443-1.194-1.329-1.194-.777 0-1.518.305-2.225.914v-1.644c.788-.501 1.674-.75 2.656-.75.901 0 1.614.226 2.138.677.524.452.787 1.073.787 1.866 0 .442-.076.84-.228 1.197-.151.356-.37.69-.658 1.003-.287.312-.747.687-1.38 1.126-.61.426-1.02.756-1.23.988-.21.233-.314.434-.314.606z"/>
	</svg>

	<svg width="18" height="18" x="139" y="120">
		<title>3</title>
		<path d="M6 10.955c.635.435 1.376.652 2.223.652.536 0 .962-.109 1.278-.326.315-.217.472-.526.472-.927 0-.412-.187-.727-.562-.944-.374-.217-.9-.326-1.575-.326h-.846v-1.399h.78c1.277 0 1.916-.393 1.916-1.18 0-.741-.49-1.112-1.468-1.112-.639 0-1.259.191-1.86.573v-1.5c.652-.31 1.424-.466 2.312-.466.901 0 1.632.19 2.193.57.56.38.841.908.841 1.582 0 1.138-.63 1.854-1.891 2.146v.028c.663.067 1.193.29 1.59.666.397.376.596.834.596 1.373 0 .828-.33 1.474-.992 1.938-.661.465-1.542.697-2.644.697-.978 0-1.766-.148-2.364-.444v-1.6z"/>
	</svg>

	<svg width="12" height="12" x="139" y="142">
		<title>关闭</title>
		<path d="M6 5.229l5.069-5.07a.545.545 0 0 1 .771.772L6.771 6l5.07 5.069a.545.545 0 0 1-.772.771L6 6.771l-5.069 5.07a.545.545 0 0 1-.771-.772L5.229 6 .159.931A.545.545 0 0 1 .932.16L6 5.229z"/>
	</svg>

	<!-- 评论：表情符号 -->
	<svg width="26" height="26" x="134" y="180">
		<path d="M13 24.143c6.154 0 11.143-4.989 11.143-11.143 0-6.154-4.989-11.143-11.143-11.143C6.846 1.857 1.857 6.846 1.857 13c0 6.154 4.989 11.143 11.143 11.143zM13 26C5.82 26 0 20.18 0 13S5.82 0 13 0s13 5.82 13 13-5.82 13-13 13zM7.5 12a1.5 1.5 0 1 1 0-3 1.5 1.5 0 0 1 0 3zm11 0a1.5 1.5 0 1 1 0-3 1.5 1.5 0 0 1 0 3zM6 15h14c0 3.314-3.134 6-7 6s-7-2.686-7-6z"/>
	</svg>

	<svg width="18" height="18" x="140" y="160">
		<title>删除</title>
		<path d="M11.985 4.097v-.86c0-.696-.43-1.119-1.083-1.119h-3.798c-.653 0-1.084.423-1.084 1.119v.86h5.965zm-6.985 0v-.902c0-1.212.928-2.195 2.104-2.195h3.798c1.176 0 2.098.983 2.098 2.195v.902h3v1.032h-14v-1.032h3zm2 9.806v-6.71h1.065v6.71h-1.065zm3 0v-6.71h1.083v6.71h-1.083zm2.992-7.742h1v8.258c0 1.426-1.12 2.581-2.5 2.581h-4.992c-1.38 0-2.5-1.155-2.5-2.58v-8.26h1v8.258c0 .856.672 1.549 1.5 1.549h4.992c.828 0 1.5-.693 1.5-1.549v-8.257z"/>
	</svg>

	<svg width="18" height="18" x="160" y="0">
		<title>锁</title>
		<path d="M13 8h-9v8h10v-8h-1zm-8-1v-2a4 4 0 1 1 8 0v2h1a1 1 0 0 1 1 1v8a1 1 0 0 1-1 1h-10a1 1 0 0 1-1-1v-8a1 1 0 0 1 1-1h1zm1 0h6v-2a3 3 0 0 0-6 0v2z"/>
	</svg>

	<svg width="18" height="18" x="160" y="20">
		<title>解锁</title>
		<path d="M9 7h7a1 1 0 0 1 1 1v8a1 1 0 0 1-1 1h-10a1 1 0 0 1-1-1v-8a1 1 0 0 1 1-1h2v-3a3 3 0 0 0-6 0v3h-1v-3a4 4 0 1 1 8 0v3zm-3 1v8h10v-8h-10z"/>
	</svg>

	<svg width="18" height="18" x="160" y="40">
		<title>vip</title>
		<path d="M12.002 3h1.2a1.8 1.8 0 1 1 0 3.6h-1.2V8h-1V3h1zm0 1v1.6h1.2a.8.8 0 1 0 0-1.6h-1.2zm-10-3a1 1 0 0 0-1 1v7a1 1 0 0 0 1 1h14a1 1 0 0 0 1-1V2a1 1 0 0 0-1-1h-14zm0-1h14a2 2 0 0 1 2 2v7a2 2 0 0 1-2 2h-14a2 2 0 0 1-2-2V2a2 2 0 0 1 2-2zm1 3.004h1.076l1.655 4.07 1.654-4.07h1.077l-2.033 5H5.035l-2.033-5zm6-.004h1v5h-1V3z"/>
	</svg>

	<svg width="39" height="15" x="160" y="60">
		<title>无音源</title>
        <path d="m22,11l0,1l-7,0l0,-1l7,0zm-13,-3l0,3l2,0l0,-1l1,0l0,2l-4,0l0,-4l1,0zm19,3l0,1l-1,0l0,-1l1,0zm8,0l0,1l-1,0l0,-1l1,0zm-6,0l0,1l-1,0l0,-1l1,0zm6,-8l0,1l-4,0l0,1l3,0l0,6l-1,0l0,-1l-1,0l0,2l-2,0l0,-1l1,0l0,-1l-1,0l0,1l-1,0l0,-6l1,0l0,-1l-2,0l0,7l-1,0l0,-8l8,0zm-10,6l0,3l-1,0l0,-3l1,0zm-21,2l0,1l-2,0l0,-1l2,0zm12,-5l0,1l3,0l0,-1l1,0l0,1l3,0l0,1l-1,0l0,3l-1,0l0,-3l-7,0l0,3l-1,0l0,-3l-1,0l0,-1l3,0l0,-1l1,0zm-11,4l0,1l-1,0l0,-1l1,0zm15,-1l0,1l-5,0l0,-1l5,0zm-9,-6l0,1l-5,0l0,2l5,0l0,1l-5,0l0,3l-1,0l0,-3l-3,0l0,-1l3,0l0,-2l-3,0l0,-1l9,0zm15,5l0,1l-1,0l0,-1l1,0zm7,0l-3,0l0,1l3,0l0,-1zm0,-2l-3,0l0,1l3,0l0,-1zm-8,0l0,1l-1,0l0,-1l1,0zm-7,-3l0,1l5,0l0,1l-2,0l0,1l-1,0l0,-1l-5,0l0,1l-1,0l0,-1l-2,0l0,-1l5,0l0,-1l1,0zm8,2l0,1l-1,0l0,-1l1,0zm-1,-2l0,2l-1,0l0,-2l1,0zm-8,-1l0,1l-1,0l0,-1l1,0z"/>
		<path fill="transparent" stroke="#000" d="m2.49365,0.52148l34,0c1.10457,0 2,0.89543 2,2l0,10c0,1.10457 -0.89543,2 -2,2l-34,0c-1.10457,0 -2,-0.89543 -2,-2l0,-10c0,-1.10457 0.89543,-2 2,-2z"/>
	</svg>

</svg>