<svg xmlns="http://www.w3.org/2000/svg" width="18" height="11" viewBox="0 0 18 11">
    <g fill="none" fill-rule="evenodd">
        <rect width="17" height="10" x=".5" y=".5" stroke="#F60" rx="2"/>
        <path fill="#F60" fill-rule="nonzero" d="M12.51 7.229l-.864-.853.703-.711.971.958a1.85 1.85 0 1 0-.81.605zm1.525.1l.472.467-.703.711-.539-.533a2.85 2.85 0 1 1 .77-.645zM5.5 6C4.12 6 3 5.216 3 4.25S4.12 2.5 5.5 2.5 8 3.284 8 4.25H7c0-.322-.611-.75-1.5-.75S4 3.928 4 4.25 4.611 5 5.5 5C6.88 5 8 5.784 8 6.75S6.88 8.5 5.5 8.5 3 7.716 3 6.75h1c0 .322.611.75 1.5.75S7 7.072 7 6.75 6.389 6 5.5 6zm0-1v1zm0 0v1zm0 0z"/>
    </g>
</svg>
