<svg xmlns="http://www.w3.org/2000/svg" width="18" height="18" viewBox="0 0 18 18">
    <path id="theme_color" fill="#000" fill-rule="nonzero" d="M9.933 8.067h3.034a.433.433 0 0 1 0 .866H9.933v3.034a.433.433 0 0 1-.866 0V8.933H6.033a.433.433 0 0 1 0-.866h3.034V5.033a.433.433 0 0 1 .866 0v3.034zm-5.2-5.2a.867.867 0 0 0-.866.866v9.534c0 .478.388.866.866.866h9.534a.867.867 0 0 0 .866-.866V3.733a.867.867 0 0 0-.866-.866H4.733zm0-.867h9.534C15.224 2 16 2.776 16 3.733v9.534c0 .957-.776 1.733-1.733 1.733H4.733A1.733 1.733 0 0 1 3 13.267V3.733C3 2.776 3.776 2 4.733 2z"/>
</svg>
