<svg xmlns="http://www.w3.org/2000/svg" width="89" height="24" viewBox="0 0 89 24">
    <defs>
        <linearGradient id="a" x1="49.992%" x2="49.992%" y1="-.057%" y2="99.971%">
            <stop offset="0%" stop-color="#00CBCB"/>
            <stop offset="16.17%" stop-color="#0FC8B2"/>
            <stop offset="44.97%" stop-color="#28C48B"/>
            <stop offset="60%" stop-color="#31C27C"/>
            <stop offset="70%" stop-color="#21C077"/>
            <stop offset="88.57%" stop-color="#09BD71"/>
            <stop offset="100%" stop-color="#00BC6E"/>
        </linearGradient>
    </defs>
    <g fill="none" fill-rule="evenodd">
        <path fill="#FFF" fill-rule="nonzero" d="M16.57 1.279c-2.655 1.289-5.657 1.631-8.341 1.614a.617.617 0 0 0-.536.921l.986 1.693 4.8 8.293a5.725 5.725 0 0 0-1.822-.107c-2.936.257-5.164 2.486-4.928 4.971.214 2.486 2.785 4.307 5.721 4.05 2.936-.257 5.164-2.485 4.929-4.971a3.878 3.878 0 0 0-.643-1.843L11.87 7.543c2.443-1.286 5.4-3.922 6.579-7.393l-.06.044.06-.065.386 2.442C21.77 4.714 23.7 8.186 23.7 12.086c0 6.493-5.271 11.764-11.764 11.764C5.443 23.85.17 18.579.17 12.086.171 5.593 5.443.32 11.936.32c1.64 0 3.213.349 4.633.958z"/>
        <g fill-rule="nonzero">
            <path fill="#FFDC00" d="M18.836 2.571L18.45.13l-1.307 1.414A11.786 11.786 0 0 0 11.936.32C5.443.321.17 5.593.17 12.086S5.443 23.85 11.936 23.85 23.7 18.579 23.7 12.086c0-3.9-1.929-7.372-4.864-9.515z"/>
            <path fill="url(#a)" d="M16.736 15.9L11.87 7.543c2.443-1.286 5.4-3.922 6.579-7.393-3.043 2.229-6.879 2.764-10.221 2.743a.617.617 0 0 0-.536.921l.986 1.693 4.8 8.293a5.725 5.725 0 0 0-1.822-.107c-2.936.257-5.164 2.486-4.928 4.971.214 2.486 2.785 4.307 5.721 4.05 2.936-.257 5.164-2.485 4.929-4.971a3.878 3.878 0 0 0-.643-1.843z"/>
        </g>
        <g fill="#FFF" id="theme_color" fill-rule="nonzero">
            <path d="M72.823 5.14h-5.299L67.181 4h-1.996l.365 1.14h-5.47v1.437h12.743zM71.429 11.627h-10.77v7.352h11.585v-6.57c0-.423-.365-.782-.815-.782zm-.901 5.915h-8.132v-1.52h8.132v1.52zm0-2.957h-8.132v-1.522h7.724c.236 0 .408.19.408.402v1.12zM71.171 7.211h-1.716l-.901 2.028H64.37l-.922-2.028H61.73l.901 2.028h-3.625v1.437h14.889V9.24H70.27zM75.119 18.303h1.866l2.103-4.88h-1.867zM86.747 13.423h-1.866l2.08 4.88h1.867z"/>
            <path d="M88.056 12.218v-1.457H83.1V7.296l-1.63-.317v3.782h-3.498a.414.414 0 0 1-.407-.444l.386-4.289 9.397-.274V4.317l-10.856.317h-.236l-.6 6.676c-.044.465.343.866.815.866h4.998v5.134h-2.016l.643 1.69h3.025v-6.782h4.935zM42.53 13.803V9.218c0-2.873-2.36-5.197-5.278-5.197h-1.824c-2.918 0-5.278 2.324-5.278 5.197v4.585c0 2.873 2.36 5.197 5.278 5.197h1.824a5.258 5.258 0 0 0 3.003-.93l.665.93h2.081L41.5 16.887a5.184 5.184 0 0 0 1.03-3.084zm-5.257 3.507H35.45c-1.952 0-3.561-1.564-3.561-3.507V9.218c0-1.922 1.588-3.507 3.561-3.507h1.824c1.952 0 3.562 1.564 3.562 3.507v4.585c0 .57-.15 1.098-.387 1.584l-1.587-2.24H36.78l2.531 3.53c-.6.4-1.287.633-2.038.633zM56.775 13.803V9.218c0-2.873-2.36-5.197-5.278-5.197h-1.823c-2.918 0-5.278 2.324-5.278 5.197v4.585c0 2.873 2.36 5.197 5.278 5.197h1.823a5.258 5.258 0 0 0 3.004-.93l.665.93h2.081l-1.502-2.113a5.184 5.184 0 0 0 1.03-3.084zM51.52 17.31h-1.824c-1.952 0-3.561-1.564-3.561-3.507V9.218c0-1.922 1.587-3.507 3.561-3.507h1.824c1.952 0 3.561 1.564 3.561 3.507v4.585c0 .57-.15 1.098-.386 1.584l-1.587-2.24h-2.082l2.532 3.53c-.6.4-1.309.633-2.038.633z"/>
        </g>
    </g>
</svg>
