<svg xmlns="http://www.w3.org/2000/svg" width="18" height="18" viewBox="0 0 18 18">
    <path id="theme_color" fill="#000" fill-rule="evenodd" d="M6.5 4h10a.5.5 0 0 1 0 1h-10a.5.5 0 0 1 0-1zm0 5h10a.5.5 0 0 1 0 1h-10a.5.5 0 0 1 0-1zm0 5h10a.5.5 0 0 1 0 1h-10a.5.5 0 0 1 0-1zM2.121 4.536L3.89 2.768a.5.5 0 1 1 .707.707L2.475 5.596a.5.5 0 0 1-.707 0L.354 4.182a.5.5 0 0 1 .707-.707l1.06 1.06zm0 5L3.89 7.768a.5.5 0 1 1 .707.707l-2.121 2.121a.5.5 0 0 1-.707 0L.354 9.182a.5.5 0 0 1 .707-.707l1.06 1.06zm0 5l1.768-1.768a.5.5 0 1 1 .707.707l-2.121 2.121a.5.5 0 0 1-.707 0L.354 14.182a.5.5 0 0 1 .707-.707l1.06 1.06z"/>
</svg>
