<svg xmlns="http://www.w3.org/2000/svg" width="18" height="18" viewBox="0 0 18 18">
    <path id="theme_color" fill="#000" fill-rule="evenodd" d="M11.985 4.097v-.86c0-.696-.43-1.119-1.083-1.119H7.104c-.653 0-1.084.423-1.084 1.119v.86h5.965zM5 4.097v-.902C5 1.983 5.928 1 7.104 1h3.798C12.078 1 13 1.983 13 3.195v.902h3v1.032H2V4.097h3zm2 9.806v-6.71h1.065v6.71H7zm3 0v-6.71h1.083v6.71H10zm2.992-7.742h1v8.258c0 1.426-1.12 2.581-2.5 2.581H6.5C5.12 17 4 15.845 4 14.42V6.16h1v8.258c0 .856.672 1.549 1.5 1.549h4.992c.828 0 1.5-.693 1.5-1.549V6.161z"/>
</svg>
