<svg xmlns="http://www.w3.org/2000/svg" width="18" height="18" viewBox="0 0 18 18">
    <path fill="#000" fill-rule="nonzero" d="M16 5.018h1v6.82a2.257 2.257 0 0 1-2.25 2.264h-3.464a.698.698 0 0 0-.526.24L9.527 15.76a.697.697 0 0 1-1.054 0L7.24 14.342a.698.698 0 0 0-.526-.24H3.25A2.256 2.256 0 0 1 1 11.838V4.264A2.257 2.257 0 0 1 3.25 2H9v1.006H3.25c-.69 0-1.25.563-1.25 1.258v7.574c0 .696.559 1.258 1.25 1.258h3.464c.49 0 .956.213 1.279.584L9 14.837l1.007-1.157c.323-.371.79-.584 1.28-.584h3.463c.69 0 1.25-.563 1.25-1.258v-6.82zM4 8.036a1 1 0 1 1 2 0 1 1 0 1 1-2 0zm4 0a1 1 0 1 1 2 0 1 1 0 1 1-2 0zm4 0a1 1 0 1 1 2 0 1 1 0 1 1-2 0z"/>
</svg>
