<svg xmlns="http://www.w3.org/2000/svg" width="18" height="18" viewBox="0 0 18 18">
    <path id="theme_color" fill="#000" fill-rule="nonzero" d="M9.024 14.76l1.007-1.15a1.7 1.7 0 0 1 1.28-.58h3.44c.69 0 1.249-.56 1.249-1.25V4.25C16 3.56 15.441 3 14.75 3H3.25C2.56 3 2 3.56 2 4.25v7.53c0 .69.559 1.25 1.25 1.25h3.488a1.7 1.7 0 0 1 1.28.58l1.006 1.15zm1.76-.492l-1.233 1.41a.7.7 0 0 1-1.053 0l-1.233-1.41a.7.7 0 0 0-.527-.239H3.25A2.249 2.249 0 0 1 1 11.78V4.25A2.25 2.25 0 0 1 3.25 2h11.5A2.249 2.249 0 0 1 17 4.25v7.53a2.25 2.25 0 0 1-2.25 2.25h-3.44a.7.7 0 0 0-.526.238zM4 8c0-.552.444-1 1-1 .552 0 1 .444 1 1 0 .552-.444 1-1 1-.552 0-1-.444-1-1zm4 0c0-.552.444-1 1-1 .552 0 1 .444 1 1 0 .552-.444 1-1 1-.552 0-1-.444-1-1zm4 0c0-.552.444-1 1-1 .552 0 1 .444 1 1 0 .552-.444 1-1 1-.552 0-1-.444-1-1z"/>
</svg>
