<?xml version="1.0" encoding="UTF-8"?>
<svg xmlns="http://www.w3.org/2000/svg" xmlns:xlink="http://www.w3.org/1999/xlink" width="18pt" height="17pt" viewBox="0 0 18 17" version="1.1">
<g id="theme_color">
<path style=" stroke:none;fill-rule:nonzero;fill:rgb(0%,0%,0%);fill-opacity:1;" d="M 6.109375 11.222656 L 6.109375 12.152344 L 4.144531 12.152344 C 3.585938 12.152344 3.117188 11.96875 2.734375 11.605469 C 2.351562 11.238281 2.160156 10.796875 2.160156 10.277344 L 2.160156 3.652344 C 2.160156 3.132812 2.351562 2.6875 2.734375 2.324219 C 3.117188 1.960938 3.585938 1.777344 4.144531 1.777344 L 12.0625 1.777344 C 12.609375 1.777344 13.074219 1.960938 13.457031 2.324219 C 13.839844 2.6875 14.03125 3.132812 14.03125 3.652344 L 14.03125 8.382812 L 13.054688 8.382812 L 13.054688 3.652344 C 13.054688 3.398438 12.957031 3.179688 12.761719 2.996094 C 12.5625 2.8125 12.332031 2.722656 12.0625 2.722656 L 4.144531 2.722656 C 3.863281 2.722656 3.628906 2.8125 3.4375 2.996094 C 3.246094 3.179688 3.152344 3.398438 3.152344 3.652344 L 3.152344 10.277344 C 3.152344 10.53125 3.246094 10.753906 3.4375 10.941406 C 3.628906 11.128906 3.863281 11.222656 4.144531 11.222656 Z M 8.09375 9.328125 L 15.023438 9.328125 C 15.300781 9.328125 15.535156 9.421875 15.726562 9.605469 C 15.917969 9.785156 16.015625 10.011719 16.015625 10.277344 L 16.015625 14.046875 C 16.015625 14.3125 15.917969 14.535156 15.726562 14.71875 C 15.535156 14.898438 15.300781 14.992188 15.023438 14.992188 L 8.09375 14.992188 C 7.828125 14.992188 7.597656 14.898438 7.398438 14.71875 C 7.199219 14.535156 7.101562 14.3125 7.101562 14.046875 L 7.101562 10.277344 C 7.101562 10.011719 7.199219 9.785156 7.398438 9.605469 C 7.597656 9.421875 7.828125 9.328125 8.09375 9.328125 Z M 8.601562 10.277344 C 8.460938 10.277344 8.339844 10.320312 8.242188 10.410156 C 8.144531 10.496094 8.09375 10.609375 8.09375 10.742188 L 8.09375 13.578125 C 8.09375 13.710938 8.144531 13.824219 8.242188 13.914062 C 8.339844 14 8.460938 14.046875 8.601562 14.046875 L 14.535156 14.046875 C 14.675781 14.046875 14.792969 14 14.882812 13.914062 C 14.976562 13.824219 15.023438 13.710938 15.023438 13.578125 L 15.023438 10.742188 C 15.023438 10.609375 14.976562 10.496094 14.882812 10.410156 C 14.792969 10.320312 14.675781 10.277344 14.535156 10.277344 Z M 8.601562 10.277344 "/>
</g>
</svg>
